<svg xmlns="http://www.w3.org/2000/svg" xmlns:xlink="http://www.w3.org/1999/xlink" width="500" zoomAndPan="magnify" viewBox="0 0 375 149.999998" height="200" preserveAspectRatio="xMidYMid meet" version="1.0"><defs><g/><clipPath id="c9ed8195de"><path d="M 4.007812 28.195312 L 370.992188 28.195312 L 370.992188 123 L 4.007812 123 Z M 4.007812 28.195312 " clip-rule="nonzero"/></clipPath><clipPath id="389a8f2689"><path d="M 370.992188 75.488281 C 370.992188 49.542969 349.925781 28.472656 323.84375 28.28125 L 51.160156 28.28125 C 25.074219 28.28125 4.007812 49.542969 4.007812 75.488281 C 4.007812 101.433594 25.074219 122.695312 51.160156 122.695312 L 323.980469 122.695312 C 349.925781 122.695312 370.992188 101.433594 370.992188 75.488281 Z M 323.84375 114.308594 L 51.019531 114.308594 C 29.5625 114.308594 12.199219 96.945312 12.199219 75.488281 C 12.199219 54.03125 29.5625 36.667969 51.019531 36.667969 L 323.84375 36.667969 C 345.242188 36.667969 362.605469 54.03125 362.605469 75.488281 C 362.605469 96.945312 345.242188 114.308594 323.84375 114.308594 Z M 323.84375 114.308594 " clip-rule="nonzero"/></clipPath></defs><g clip-path="url(#c9ed8195de)"><g clip-path="url(#389a8f2689)"><path fill="#ffffff" d="M 4.007812 23.792969 L 370.992188 23.792969 L 370.992188 126.207031 L 4.007812 126.207031 Z M 4.007812 23.792969 " fill-opacity="1" fill-rule="nonzero"/></g></g><g fill="#ffffff" fill-opacity="1"><g transform="translate(119.814758, 98.305393)"><g><path d="M 25.648438 -29.734375 L 12.894531 -48.519531 L 3.464844 -48.519531 L 3.464844 0 L 15.320312 0 L 15.320312 -24.121094 L 22.320312 -13.65625 L 28.90625 -13.65625 L 35.90625 -23.984375 L 35.90625 0 L 47.6875 0 L 47.6875 -48.519531 L 38.402344 -48.519531 Z M 25.648438 -29.734375 "/></g></g></g><g fill="#ffffff" fill-opacity="1"><g transform="translate(171.23885, 98.305393)"><g><path d="M 19.132812 -38.125 C 6.929688 -38.125 0.96875 -29.527344 0.96875 -19.269531 C 0.96875 -8.941406 7.140625 0.484375 18.992188 0.484375 C 22.597656 0.484375 26.269531 -0.554688 28.835938 -3.742188 L 28.835938 0 L 39.71875 0 L 39.71875 -37.5 L 28.835938 -37.5 L 28.835938 -33.617188 C 26.410156 -36.738281 22.804688 -38.125 19.132812 -38.125 Z M 20.308594 -9.980469 C 14.765625 -9.980469 11.921875 -14.488281 11.921875 -18.992188 C 11.921875 -23.566406 14.695312 -28.074219 20.308594 -28.074219 C 25.023438 -28.074219 28.835938 -23.984375 28.835938 -18.992188 C 28.835938 -14 25.023438 -9.980469 20.308594 -9.980469 Z M 20.308594 -9.980469 "/></g></g></g><g fill="#ffffff" fill-opacity="1"><g transform="translate(215.801775, 98.305393)"><g><path d="M 25.4375 -19.0625 L 36.527344 -36.460938 L 36.527344 -37.570312 L 24.398438 -37.570312 L 21.625 -33.339844 L 18.300781 -26.894531 L 14.972656 -33.339844 L 12.269531 -37.570312 L 0.136719 -37.570312 L 0.136719 -36.460938 L 11.230469 -19.0625 L 0 -0.761719 L 0 0 L 12.128906 0 L 14.765625 -4.503906 L 18.300781 -11.4375 L 21.835938 -4.503906 L 24.539062 0 L 36.667969 0 L 36.667969 -0.761719 Z M 25.4375 -19.0625 "/></g></g></g></svg>