<svg xmlns="http://www.w3.org/2000/svg" viewBox="8.9 9.1 189.2 43.6"><style>.st0{fill:#fff}.st1{fill:#ff160a}</style><switch><g><g id="Downdetector_small"><path class="st0" d="M195.1 10.6c0-.8.7-1.5 1.5-1.5s1.5.7 1.5 1.5-.7 1.5-1.5 1.5c-.9 0-1.5-.7-1.5-1.5zm2.8 0c0-.7-.6-1.4-1.3-1.4-.8 0-1.3.6-1.3 1.4 0 .7.6 1.3 1.3 1.3.7 0 1.3-.6 1.3-1.3zm-1.9-.8h.7c.3 0 .6.2.6.5s-.1.4-.4.5l.4.6h-.4l-.4-.5h-.3v.5h-.3V9.8zm.7.8c.2 0 .3-.1.3-.3 0-.2-.1-.3-.3-.3h-.4v.5l.4.1z"/><path class="st1" d="M178.2 18.7c0-5.2 4.1-9.4 9.2-9.4s9.2 4.2 9.2 9.4-4.1 9.4-9.2 9.4h-9.2v-9.4z"/><path class="st0" d="M188.5 25.1c-.7.1-1.4.1-2.1 0-.2 0-.3-.2-.3-.3-.1-.7-.1-1.4 0-2.2 0-.2.2-.3.3-.3.7-.1 1.4-.1 2.1 0 .2 0 .3.2.3.3.1.7.1 1.4 0 2.2 0 .2-.2.3-.3.3zm-2.4-4.4l-.5-7.9c0-.3.2-.5.5-.6.9-.2 1.7-.2 2.6 0 .3.1.5.3.5.6l-.5 7.9c0 .2-.2.4-.4.4-.6.1-1.2.1-1.7 0-.3 0-.5-.2-.5-.4z"/><path class="st1" d="M8.9 19.8H16c5.6 0 9.5 3.7 9.5 9.3 0 5.6-3.9 9.2-9.5 9.2H8.9V19.8zM16 34.9c3.6 0 5.6-2.6 5.6-5.8 0-3.3-1.9-5.8-5.6-5.8h-3.3v11.6H16zm11.1-3.3c0-3.8 2.6-7 6.9-7 4.3 0 6.9 3.2 6.9 7s-2.6 7-6.9 7c-4.3.1-6.9-3.2-6.9-7zm10.3 0c0-2.1-1.2-3.9-3.3-3.9s-3.3 1.8-3.3 3.9c0 2.1 1.2 3.9 3.3 3.9s3.3-1.8 3.3-3.9zm14-2.4l-2.8 9.1H45l-4-13.4h3.6l2.4 9 2.9-9h3l2.9 9 2.4-9h3.6l-4 13.4h-3.6l-2.8-9.1zm20.9 1c0-1.9-.9-2.5-2.4-2.5-1.3 0-2.4.8-3 1.6v9h-3.4V24.9h3.4v1.7c.8-1 2.4-2.1 4.6-2.1 2.9 0 4.2 1.7 4.2 4.3v9.4h-3.4v-8z"/><path class="st0" d="M87.3 36.6c-1 1.3-2.5 2-4 2-3.3 0-5.8-2.5-5.8-7 0-4.4 2.5-7 5.8-7 1.5 0 3 .7 4 2.1v-6.8h3.5v18.5h-3.5v-1.8zm0-7.3c-.6-.9-1.8-1.5-3-1.5-1.9 0-3.3 1.6-3.3 3.9s1.3 3.9 3.3 3.9c1.2 0 2.4-.6 3-1.5v-4.8zm11.9-4.7c3.9 0 6.5 3 6.5 7.4v.8H96c.2 1.7 1.5 3.1 3.7 3.1 1.2 0 2.6-.5 3.5-1.3l1.5 2.3c-1.3 1.2-3.3 1.9-5.4 1.9-4 0-7-2.7-7-7 .2-4.1 2.9-7.2 6.9-7.2zM96 30.4h6.4c-.1-1.3-.9-3-3.2-3-2.1 0-3 1.6-3.2 3zm12.9 4.6v-7h-2.2v-3.1h2.2v-3.7h3.5v3.7h2.6V28h-2.6v6c0 .8.4 1.5 1.2 1.5.5 0 1-.2 1.2-.4l.7 2.7c-.5.5-1.4.9-2.9.9-2.4 0-3.7-1.3-3.7-3.7zm14-10.4c3.9 0 6.5 3 6.5 7.4v.8h-9.7c.2 1.7 1.5 3.1 3.7 3.1 1.2 0 2.6-.5 3.5-1.3l1.5 2.3c-1.3 1.2-3.3 1.9-5.4 1.9-4 0-7-2.7-7-7 .1-4.1 2.9-7.2 6.9-7.2zm-3.2 5.8h6.4c-.1-1.3-.9-3-3.2-3-2.2 0-3.1 1.6-3.2 3zm18.3-5.8c2.7 0 4.3 1.2 5.2 2.4l-2.2 2.1c-.6-.9-1.6-1.4-2.8-1.4-2.1 0-3.5 1.6-3.5 3.9s1.5 3.9 3.5 3.9c1.2 0 2.1-.6 2.8-1.4l2.2 2.1c-.9 1.2-2.5 2.4-5.2 2.4-4 0-6.9-2.9-6.9-7s2.9-7 6.9-7zm8.6 10.4v-7h-2.2v-3.1h2.2v-3.7h3.5v3.7h2.6V28H150v6c0 .8.4 1.5 1.2 1.5.5 0 1-.2 1.2-.4l.7 2.7c-.5.5-1.4.9-2.9.9-2.3 0-3.6-1.3-3.6-3.7zm7-3.4c0-3.8 2.6-7 6.9-7 4.3 0 6.9 3.2 6.9 7s-2.6 7-6.9 7c-4.3.1-6.9-3.2-6.9-7zm10.2 0c0-2.1-1.2-3.9-3.3-3.9-2.1 0-3.3 1.8-3.3 3.9 0 2.1 1.2 3.9 3.3 3.9 2.1 0 3.3-1.8 3.3-3.9zm5.2-6.7h3.4v1.8c.9-1.2 2.5-2.1 4.2-2.1V28c-.2-.1-.6-.1-.9-.1-1.1 0-2.6.6-3.2 1.5v8.8H169V24.9z"/></g><path class="st0" d="M10.4 50.1l-.1.5h-.7v-7.1h.8v2.8c.4-.4 1-.7 1.5-.7 1.2 0 1.9 1 1.9 2.5 0 1.7-1 2.6-2.1 2.6-.4 0-.9-.2-1.3-.6zm2.6-2c0-1.1-.4-1.8-1.3-1.8-.4 0-.8.2-1.3.7v2.5c.4.4.9.5 1.2.5.8 0 1.4-.7 1.4-1.9zm1.4 4.5l.2-.7c.1 0 .2.1.4.1.5 0 .9-.4 1.1-1l.1-.4-1.9-4.9h.7l1 2.7c.2.4.3.9.5 1.4.1-.4.3-.9.4-1.4l.9-2.7h.8L16.8 51c-.3 1-.8 1.7-1.8 1.7-.3 0-.5-.1-.6-.1zm6.3-5.3c0-2.1 1.1-3.4 2.8-3.4 1.6 0 2.8 1.3 2.8 3.4 0 2.1-1.2 3.4-2.8 3.4-1.6 0-2.8-1.3-2.8-3.4zm4.8 0c0-1.6-.8-2.6-1.9-2.6-1.2 0-1.9 1-1.9 2.6s.8 2.7 1.9 2.7c1.1 0 1.9-1.1 1.9-2.7zm1.6.9c0-1.6 1.1-2.6 2.2-2.6s2.3.9 2.3 2.6c0 1.6-1.1 2.5-2.3 2.5s-2.2-.9-2.2-2.5zm3.6 0c0-1.1-.6-1.9-1.4-1.9-.8 0-1.4.8-1.4 1.9 0 1.1.6 1.8 1.4 1.8.9 0 1.4-.7 1.4-1.8zm1.9-4.7h.8v4.8l2-2.5h.9l-1.6 2 1.8 2.9h-.9l-1.4-2.3-.9 1v1.3h-.8v-7.2zm4.7 6.1v-6.1h.8v6.2c0 .3.1.4.2.4h.2l.1.6c-.1.1-.3.1-.5.1-.5-.1-.8-.5-.8-1.2zm2-.3c0-1.1.9-1.6 3-1.8 0-.6-.2-1.2-1-1.2-.6 0-1.1.2-1.4.5l-.3-.6c.4-.3 1.1-.6 1.9-.6 1.2 0 1.7.8 1.7 2v3h-.7l-.1-.6c-.5.4-1 .7-1.6.7-.9 0-1.5-.5-1.5-1.4zm3 .1v-1.3c-1.6.2-2.2.6-2.2 1.2 0 .5.4.8.8.8s.9-.3 1.4-.7zm1.5-4c0-1.2.8-2 1.9-2 1 0 1.9.8 1.9 2s-.8 2-1.9 2c-1 0-1.9-.8-1.9-2zm3.4 0c0-.9-.6-1.6-1.5-1.6-.8 0-1.5.7-1.5 1.6 0 .9.6 1.6 1.5 1.6.8 0 1.5-.6 1.5-1.6zm-2.2-1h.8c.4 0 .8.2.8.6 0 .2-.1.5-.4.5l.5.8h-.5l-.3-.7h-.4v.7H45v-1.9zm.6 1c.3 0 .4-.1.4-.3 0-.2-.1-.3-.4-.3h-.3v.7h.3z" id="Downdetector_Enterprise_small"/></g></switch></svg>