<svg xmlns="http://www.w3.org/2000/svg" width="500" viewBox="0 0 375 150" height="200" version="1.0"><defs><clipPath id="a"><path d="M4.008 28.195h366.984V123H4.008zm0 0"/></clipPath><clipPath id="b"><path d="M370.992 75.488c0-25.945-21.066-47.015-47.148-47.207H51.16c-26.086 0-47.152 21.262-47.152 47.207 0 25.946 21.066 47.207 47.152 47.207h272.82c25.946 0 47.012-21.261 47.012-47.207zm-47.148 38.82H51.02c-21.458 0-38.82-17.363-38.82-38.82s17.363-38.82 38.82-38.82h272.824c21.398 0 38.761 17.363 38.761 38.82s-17.363 38.82-38.761 38.82zm0 0"/></clipPath></defs><g clip-path="url(#a)"><g clip-path="url(#b)"><path fill="#fff" d="M4.008 23.793h366.984v102.414H4.008zm0 0"/></g></g><path d="M145.463 68.571L132.71 49.786h-9.43v48.52h11.856V74.183l7 10.465h6.586l7-10.328v23.984h11.781v-48.52h-9.285zm44.909-8.391c-12.203 0-18.164 8.598-18.164 18.856 0 10.328 6.171 19.754 18.023 19.754 3.606 0 7.277-1.04 9.844-4.227v3.742h10.883v-37.5h-10.883v3.883c-2.426-3.12-6.031-4.508-9.703-4.508zm1.175 28.145c-5.543 0-8.386-4.508-8.386-9.012 0-4.574 2.773-9.082 8.386-9.082 4.715 0 8.528 4.09 8.528 9.082 0 4.992-3.813 9.012-8.528 9.012zm49.693-9.082l11.09-17.399v-1.109H240.2l-2.773 4.23-3.324 6.446-3.329-6.445-2.703-4.23h-12.133v1.108l11.094 17.399-11.23 18.3v.762h12.129l2.636-4.504 3.536-6.933 3.535 6.933 2.703 4.504h12.129v-.761zm0 0" fill="#fff"/></svg>