<svg id="Layer_1" data-name="Layer 1" xmlns="http://www.w3.org/2000/svg" viewBox="0 0 141.15 129.19"><defs><style>.cls-1{fill:#e50914}</style></defs><path class="cls-1" d="M250.15 226.91v9.5a19.78 19.78 0 0120.38 20.44H280a29.24 29.24 0 00-29.85-29.94zM286 221a49.53 49.53 0 00-35.23-14.65h-.59v10.16a39.66 39.66 0 0140.21 40.33h10.16v-.59A49.53 49.53 0 00286 221z" transform="translate(-179.53 -186.34)"/><path class="cls-1" d="M179.53 256.82a70.57 70.57 0 01141.15 0v7.38h-19v-7.3h9.39v-.08a61 61 0 00-121.91 0v.08h9.39v7.3h-19v-7.38z" transform="translate(-179.53 -186.34)"/><path d="M255.22 250.7l-5-54.66-5 54.66a8 8 0 1010 0zm-66.7 31.56V291H208v8.17h-19.48v15.82h-9v-40.9h31.11v8.17h-22.11zm52.56 32.69l-3.74-9.16h-17.27l-3.74 9.16h-9.16l17.51-41.15H233l17.51 41.15h-9.4zm-12.37-30.35l-5.43 13.25h10.86zm40.56 30.93a26 26 0 01-17.34-6.53l5.31-6.36c3.68 3 7.53 5 12.2 5 3.68 0 5.9-1.46 5.9-3.85v-.12c0-2.28-1.4-3.44-8.23-5.19-8.23-2.1-13.54-4.38-13.54-12.49v-.12c0-7.41 6-12.32 14.3-12.32A23.65 23.65 0 01283 278.7l-4.67 6.77c-3.62-2.51-7.18-4-10.62-4S262.5 283 262.5 285v.12c0 2.68 1.75 3.56 8.81 5.37 8.29 2.16 13 5.14 13 12.26v.12c-.04 8.13-6.23 12.66-15.04 12.66zm38.98-33.15v32.57h-9v-32.57h-12.43v-8.29h33.85v8.29h-12.42z" transform="translate(-179.53 -186.34)"/></svg>